Coordinates
version=1
nRows=12
nColumns=24
inDegrees=yes

Units are S.I. units (second, meters, Newtons, ...)
Angles are in degrees.

endheader
time	pelvis_tilt	pelvis_list	pelvis_rotation	pelvis_tx	pelvis_ty	pelvis_tz	hip_flexion_r	hip_adduction_r	hip_rotation_r	knee_angle_r	ankle_angle_r	subtalar_angle_r	mtp_angle_r	hip_flexion_l	hip_adduction_l	hip_rotation_l	knee_angle_l	ankle_angle_l	subtalar_angle_l	mtp_angle_l	lumbar_extension	lumbar_bending	lumbar_rotation
      3.60500000	     -8.38171033	      8.26842780	      0.49678304	     -0.72092273	     -0.01806544	      0.67495522	     39.47002589	    -12.29609778	     -3.15527444	    -61.47615530	    -15.48914725	    -17.35842502	     22.41582092	      5.17428220	     13.22292245	     13.60657389	    -17.72424279	     17.11130934	    -12.61357573	    -37.20696743	      7.48003453	     -9.07074749	     -6.64766460
      3.61000000	     -8.22062226	      8.16347647	      0.63269285	     -0.71418349	     -0.01797432	      0.67480147	     39.68543448	    -12.13502379	     -3.18630075	    -60.33720214	    -15.10120391	    -17.14076298	     21.89407648	      4.38660938	     13.04614306	     13.61590226	    -17.40702566	     17.22420337	    -12.23864286	    -36.98974289	      7.20909462	     -8.93050663	     -6.98383796
      3.61500000	     -8.28238455	      8.06981394	      0.71336575	     -0.70737716	     -0.01817478	      0.67467906	     40.12998451	    -11.91656674	     -3.08718519	    -59.11898266	    -14.81460233	    -16.94459465	     21.78947605	      3.84920298	     12.88739603	     13.63723803	    -17.09611277	     17.25870515	    -12.04241419	    -36.90994017	      7.20918506	     -8.77822944	     -7.18330225
      3.62000000	     -8.14655233	      7.96758047	      0.83976953	     -0.70061684	     -0.01822388	      0.67452034	     40.30124345	    -11.74756067	     -3.04395370	    -57.84273714	    -14.36525578	    -16.46163659	     21.59551354	      3.11183631	     12.69858127	     13.60967529	    -16.81738180	     17.39152988	    -11.58212196	    -36.65968194	      6.97051590	     -8.62727615	     -7.49308731
      3.62500000	     -8.11473270	      7.85862973	      0.93610890	     -0.69383886	     -0.01842455	      0.67440357	     40.55582458	    -11.53115912	     -2.92859904	    -56.49143245	    -13.96104568	    -15.98278204	     21.52336412	      2.49410351	     12.50155268	     13.60848757	    -16.54659267	     17.47217617	    -11.19443364	    -36.40952685	      6.85368265	     -8.45979245	     -7.73883571
      3.63000000	     -8.14442653	      7.74294282	      1.01806815	     -0.68702372	     -0.01872155	      0.67426666	     40.84324587	    -11.29989607	     -2.78202753	    -55.06872297	    -13.61522938	    -15.47015115	     21.55818701	      1.94168504	     12.29763833	     13.64324934	    -16.27757154	     17.54836259	    -10.82364656	    -36.20918687	      6.81543882	     -8.27213450	     -7.94659482
      3.63500000	     -8.06466518	      7.65683977	      1.12891484	     -0.68034003	     -0.01898398	      0.67416340	     40.96976756	    -11.11404347	     -2.61414969	    -53.58660321	    -13.13239886	    -14.84799519	     21.63697167	      1.31054426	     12.10880518	     13.61740777	    -16.07332527	     17.64181901	    -10.26587589	    -35.83454318	      6.61887994	     -8.13030301	     -8.24141117
      3.64000000	     -7.93434559	      7.45087162	      1.14685261	     -0.67356563	     -0.01914370	      0.67420209	     40.97779186	    -10.74564395	     -2.44019753	    -51.99414727	    -12.78830131	    -14.35764145	     21.43749511	      0.62396672	     11.76212317	     13.41569177	    -15.82368341	     17.31732963	     -9.69055362	    -33.98150191	      6.39237912	     -7.83939943	     -8.44270073
      3.64500000	     -8.05701508	      7.40504534	      1.31552224	     -0.66683595	     -0.01971627	      0.67394710	     41.25636648	    -10.64626909	     -2.24093472	    -50.41063243	    -12.30277314	    -13.60882234	     21.69484780	      0.22429656	     11.62757533	     13.49720978	    -15.66300280	     17.40738043	     -9.14387686	    -33.68866987	      6.42297171	     -7.73107880	     -8.72319497
      3.65000000	     -8.06288290	      7.30200680	      1.42497091	     -0.66009291	     -0.02014396	      0.67378328	     41.35183018	    -10.45766426	     -2.03162537	    -48.73367302	    -11.88584362	    -12.95376256	     21.85934511	     -0.29276932	     11.41100035	     13.47415949	    -15.49727631	     17.48841680	     -8.51365932	    -33.27381255	      6.32834343	     -7.54802379	     -8.97615045
      3.65500000	     -8.04087040	      7.17500008	      1.52622542	     -0.65337622	     -0.02054658	      0.67366462	     41.37536500	    -10.24158462	     -1.81503301	    -46.99748214	    -11.52652970	    -12.33798690	     21.92621851	     -0.82130398	     11.15448194	     13.39717330	    -15.35313842	     17.53736538	     -7.79426173	    -32.62278157	      6.19600937	     -7.34372211	     -9.23362542
      3.66000000	     -8.11408048	      6.99335629	      1.61400496	     -0.64649680	     -0.02109748	      0.67365504	     41.44822435	     -9.95282067	     -1.62296148	    -45.22510189	    -11.08192691	    -11.81802449	     21.51054679	     -1.22209057	     10.80380248	     12.94873280	    -15.16821219	     16.45314940	     -7.06372546	    -28.07547845	      6.19988888	     -7.08367177	     -9.43584211
